# xmcd
#
# Track frame offsets: 
#        150
#        15010
#        34000
#        50325
#        66945
#        82130
#        98420
#        116200
#        133370
#        149320
#
# Disc length: 2211 seconds
#
# Revision: 2
# Processed by: cddbd v1.4PL0 Copyright (c) Steve Scherf et al.
# Submitted via: ExactAudioCopy v0.90b3
#
DISCID=8408a10a
DTITLE=Laura Nyro - Walk the Dog and Light the Light
DYEAR=1993
DGENRE=
TTITLE0=Oh Yeah Maybe Baby (The Heebie Jeebies)
TTITLE1=A Woman of the World
TTITLE2=The Descent of Luna Rosi
TTITLE3=Art of Love
TTITLE4=Lite a Flame (The Animal Rights Song)
TTITLE5=Louise's Church
TTITLE6=Broken Rainbow
TTITLE7=Walk the Dog and Light the Light (Song of the Road)
TTITLE8=To a Child
TTITLE9=I'm So Proud/Dedicated to the One I Love
EXTD=Submitted by Joel Siegfried\nEmail: ecto@home.com\nColumbia CK524
EXTD=11\n
EXTT0=
EXTT1=
EXTT2=
EXTT3=
EXTT4=
EXTT5=
EXTT6=
EXTT7=
EXTT8=
EXTT9=
PLAYORDER=
